<svg width="1280" height="400" viewBox="0 0 1280 400" fill="none" xmlns="http://www.w3.org/2000/svg">
  <rect width="1280" height="400" fill="#1A1A1F"/>

  <!-- official Respan wordmark (from respan.ai/brand), scaled 3.6x -->
  <g transform="translate(247, 66) scale(3.6)" color="#F9FAFD">
    <path d="M0 26.6016V3.39857H6.61007V5.93712H3.18161V24.0723H6.61007V26.6016H0Z" fill="currentColor"/>
    <path d="M15.2781 22.8304C14.7234 22.8304 14.2481 22.6355 13.8518 22.246C13.4556 21.8564 13.2606 21.3815 13.2667 20.8215C13.2606 20.2736 13.4556 19.8048 13.8518 19.4153C14.2481 19.0256 14.7234 18.8308 15.2781 18.8308C15.8145 18.8308 16.2807 19.0256 16.6769 19.4153C17.0792 19.8048 17.2834 20.2736 17.2895 20.8215C17.2834 21.1929 17.1858 21.5307 16.9969 21.8351C16.814 22.1395 16.5702 22.3829 16.2654 22.5656C15.9668 22.7421 15.6377 22.8304 15.2781 22.8304Z" fill="currentColor"/>
    <path d="M25.2288 3.39857V26.6016H18.6187V24.0723H22.0472V5.93712H18.6187V3.39857H25.2288Z" fill="currentColor"/>
    <path d="M34.093 24.2367V5.53533H41.1144C42.553 5.53533 43.7598 5.78493 44.7349 6.28412C45.7162 6.78331 46.4568 7.48339 46.9566 8.38437C47.4625 9.27925 47.7155 10.3233 47.7155 11.5165C47.7155 12.7157 47.4594 13.7567 46.9474 14.6395C46.4416 15.5161 45.6949 16.1949 44.7075 16.6757C43.7201 17.1506 42.5072 17.388 41.0687 17.388H36.0678V14.5755H40.6117C41.4528 14.5755 42.1415 14.4599 42.6778 14.2286C43.2142 13.9911 43.6104 13.6471 43.8664 13.1967C44.1285 12.74 44.2596 12.18 44.2596 11.5165C44.2596 10.8529 44.1285 10.2868 43.8664 9.818C43.6044 9.34317 43.2051 8.98399 42.6687 8.74049C42.1324 8.4909 41.4406 8.3661 40.5933 8.3661H37.4849V24.2367H34.093ZM43.7658 15.7626L48.4012 24.2367H44.616L40.0631 15.7626H43.7658Z" fill="currentColor"/>
    <path d="M55.6346 24.5105C54.2267 24.5105 53.0106 24.2184 51.9867 23.634C50.9688 23.0434 50.1856 22.2094 49.637 21.1319C49.0885 20.0484 48.8142 18.7729 48.8142 17.3058C48.8142 15.863 49.0885 14.5968 49.637 13.5072C50.1917 12.4113 50.9658 11.5591 51.9592 10.9503C52.9528 10.3355 54.1199 10.028 55.4608 10.028C56.3263 10.028 57.1431 10.1681 57.911 10.4481C58.6851 10.722 59.3678 11.1482 59.959 11.7265C60.5563 12.3048 61.0256 13.0414 61.3669 13.9363C61.7083 14.8251 61.879 15.8844 61.879 17.114V18.1277H50.3685V15.8996H58.7065C58.7004 15.2665 58.5633 14.7033 58.2951 14.2103C58.0269 13.7111 57.652 13.3184 57.1705 13.0323C56.6951 12.7461 56.1404 12.6031 55.5065 12.6031C54.8301 12.6031 54.2358 12.7675 53.7238 13.0962C53.2117 13.4189 52.8126 13.845 52.5261 14.3746C52.2458 14.8982 52.1024 15.4735 52.0964 16.1005V18.0455C52.0964 18.8612 52.2458 19.5613 52.5444 20.1458C52.843 20.7241 53.2606 21.1684 53.7969 21.4789C54.3333 21.7833 54.961 21.9355 55.6803 21.9355C56.1617 21.9355 56.5976 21.8685 56.9876 21.7346C57.3778 21.5946 57.716 21.3906 58.0024 21.1228C58.289 20.8549 58.5053 20.5232 58.6517 20.1274L61.7417 20.4745C61.5467 21.2903 61.1749 22.0024 60.6264 22.6112C60.084 23.2139 59.3892 23.6826 58.5419 24.0175C57.6947 24.3462 56.7256 24.5105 55.6346 24.5105Z" fill="currentColor"/>
    <path d="M74.7052 13.9181L71.6882 14.2468C71.6028 13.9424 71.4534 13.6563 71.2401 13.3885C71.0329 13.1206 70.7525 12.9045 70.3991 12.74C70.0455 12.5757 69.6128 12.4935 69.1007 12.4935C68.4121 12.4935 67.833 12.6426 67.3637 12.9409C66.9005 13.2393 66.6719 13.6259 66.678 14.1006C66.6719 14.5085 66.8212 14.8404 67.126 15.096C67.4368 15.3516 67.9489 15.5618 68.6619 15.7261L71.0573 16.2375C72.386 16.5236 73.3734 16.9771 74.0195 17.598C74.6716 18.219 75.0007 19.0317 75.0069 20.0361C75.0007 20.9189 74.7417 21.698 74.2298 22.3738C73.7239 23.0434 73.0198 23.567 72.1178 23.9444C71.2157 24.3219 70.1796 24.5105 69.0093 24.5105C67.2905 24.5105 65.9069 24.1514 64.8586 23.4331C63.8103 22.7086 63.1855 21.7011 62.9844 20.4105L66.2117 20.1001C66.358 20.7332 66.6689 21.2111 67.1443 21.5337C67.6196 21.8564 68.2383 22.0176 69.0002 22.0176C69.7864 22.0176 70.4173 21.8564 70.8927 21.5337C71.3742 21.2111 71.615 20.8123 71.615 20.3375C71.615 19.9358 71.4596 19.6039 71.1487 19.3422C70.8439 19.0804 70.3685 18.8795 69.7225 18.7395L67.3271 18.2372C65.9801 17.9573 64.9836 17.4854 64.3375 16.8219C63.6914 16.1522 63.3714 15.306 63.3775 14.2833C63.3714 13.4189 63.6061 12.6701 64.0815 12.037C64.563 11.3978 65.2304 10.9047 66.0837 10.5577C66.9432 10.2046 67.9336 10.028 69.055 10.028C70.7007 10.028 71.9959 10.3781 72.9407 11.0781C73.8914 11.7782 74.4796 12.7248 74.7052 13.9181Z" fill="currentColor"/>
    <path d="M76.6633 29.4964V10.2107H79.9181V12.53H80.1101C80.2808 12.1891 80.5215 11.827 80.8324 11.4434C81.1433 11.0538 81.5638 10.722 82.094 10.4481C82.6244 10.1681 83.3008 10.028 84.1237 10.028C85.2086 10.028 86.1869 10.305 87.0585 10.859C87.9362 11.4069 88.631 12.2196 89.143 13.2971C89.661 14.3685 89.9201 15.6835 89.9201 17.242C89.9201 18.7821 89.6671 20.0909 89.1613 21.1684C88.6554 22.246 87.9667 23.0679 87.0951 23.634C86.2235 24.2001 85.236 24.4832 84.1328 24.4832C83.3283 24.4832 82.6608 24.3493 82.1306 24.0814C81.6003 23.8136 81.1737 23.4909 80.8506 23.1135C80.5337 22.7299 80.2869 22.3677 80.1101 22.0269H79.973V29.4964H76.6633ZM79.909 17.2236C79.909 18.1307 80.037 18.9252 80.293 19.6069C80.5551 20.2888 80.9299 20.8215 81.4176 21.205C81.9112 21.5824 82.5085 21.7711 83.2094 21.7711C83.9408 21.7711 84.5535 21.5763 85.0471 21.1868C85.5408 20.7911 85.9126 20.2523 86.1625 19.5704C86.4185 18.8825 86.5465 18.1003 86.5465 17.2236C86.5465 16.3531 86.4215 15.58 86.1717 14.9042C85.9217 14.2286 85.5499 13.6989 85.0562 13.3154C84.5626 12.9318 83.9469 12.74 83.2094 12.74C82.5024 12.74 81.9021 12.9257 81.4083 13.2971C80.9147 13.6684 80.5398 14.1889 80.2838 14.8586C80.0339 15.5282 79.909 16.3166 79.909 17.2236Z" fill="currentColor"/>
    <path d="M95.7225 24.5198C94.8326 24.5198 94.0311 24.3614 93.318 24.0449C92.6109 23.7222 92.0502 23.2474 91.6357 22.6203C91.2273 21.9933 91.0232 21.2202 91.0232 20.301C91.0232 19.5095 91.1695 18.8551 91.462 18.3377C91.7546 17.8202 92.1538 17.4063 92.6597 17.0958C93.1656 16.7853 93.7355 16.551 94.3693 16.3926C95.0093 16.2283 95.6707 16.1096 96.3534 16.0366C97.1761 15.9513 97.8436 15.8753 98.3555 15.8083C98.8675 15.7352 99.2393 15.6256 99.4709 15.4796C99.7086 15.3273 99.8275 15.093 99.8275 14.7764V14.7216C99.8275 14.0337 99.6232 13.5011 99.215 13.1236C98.8066 12.7461 98.2184 12.5575 97.4504 12.5575C96.6398 12.5575 95.9968 12.734 95.5214 13.0871C95.052 13.4402 94.735 13.8572 94.5705 14.3381L91.4803 13.8998C91.7241 13.0475 92.1264 12.3353 92.6871 11.763C93.2479 11.1846 93.9336 10.7524 94.7443 10.4663C95.5548 10.1741 96.4509 10.028 97.4321 10.028C98.1087 10.028 98.7822 10.1072 99.4527 10.2655C100.123 10.4237 100.736 10.6855 101.29 11.0507C101.845 11.41 102.29 11.9 102.625 12.5209C102.966 13.1418 103.137 13.9181 103.137 14.8495V24.2367H99.9555V22.3099H99.8457C99.6446 22.6995 99.3612 23.0648 98.9955 23.4057C98.6359 23.7405 98.1818 24.0114 97.6332 24.2184C97.0907 24.4193 96.4539 24.5198 95.7225 24.5198ZM96.5818 22.0907C97.2462 22.0907 97.8222 21.9599 98.3098 21.698C98.7975 21.4302 99.1723 21.0771 99.4343 20.6388C99.7025 20.2005 99.8366 19.7226 99.8366 19.2051V17.5524C99.733 17.6376 99.5562 17.7167 99.3064 17.7898C99.0625 17.8629 98.7882 17.9268 98.4835 17.9816C98.1788 18.0363 97.8771 18.0851 97.5784 18.1277C97.2798 18.1703 97.0207 18.2068 96.8013 18.2372C96.3076 18.3042 95.8657 18.4138 95.4757 18.5659C95.0855 18.7182 94.7777 18.9313 94.5522 19.2051C94.3267 19.473 94.2139 19.82 94.2139 20.2461C94.2139 20.8549 94.4364 21.3146 94.8814 21.6251C95.3263 21.9355 95.8932 22.0907 96.5818 22.0907Z" fill="currentColor"/>
    <path d="M108.702 16.0183V24.2367H105.392V10.2107H108.556V12.594H108.72C109.043 11.8086 109.559 11.1846 110.266 10.722C110.978 10.2594 111.859 10.028 112.908 10.028C113.876 10.028 114.721 10.235 115.44 10.649C116.166 11.0629 116.726 11.6626 117.122 12.4479C117.525 13.2332 117.722 14.1859 117.717 15.306V24.2367H114.406V15.8174C114.406 14.8799 114.163 14.1463 113.676 13.6167C113.194 13.0871 112.527 12.8223 111.673 12.8223C111.094 12.8223 110.579 12.9501 110.128 13.2058C109.683 13.4554 109.332 13.8176 109.077 14.2924C108.827 14.7673 108.702 15.3425 108.702 16.0183Z" fill="currentColor"/>
  </g>

  <!-- "security" in serif lowercase, baseline-aligned with the wordmark -->
  <text x="702" y="153" font-family="Georgia, 'DejaVu Serif', serif" font-size="98" fill="#D7124A">security</text>

  <text x="640" y="228" text-anchor="middle" font-family="Arial, 'Liberation Sans', sans-serif" font-size="26" fill="#9C9CA6" letter-spacing="0.5">Adaptive security testing for AI agents</text>

  <!-- terminal chip -->
  <rect x="380" y="272" width="520" height="68" rx="12" fill="#101014" stroke="#F9FAFD" stroke-opacity="0.09"/>
  <text x="408" y="316" font-family="'DejaVu Sans Mono', 'Liberation Mono', monospace" font-size="27"><tspan fill="#D7124A">$</tspan><tspan dx="18" fill="#E8E8EC">pip install respan-redteam</tspan></text>
</svg>
